# xmcd
#
# Track frame offsets: 
#        150
#        19389
#        40767
#        60231
#        80461
#        99037
#        125382
#        143517
#        158192
#        177808
#        202754
#        220024
#
# Disc length: 3358 seconds
#
# Revision: 0
# Processed by: cddbd v1.5.2PL0 Copyright (c) Steve Scherf et al.
# Submitted via: ExactAudioCopyFreeDBPlugin 1.0
#
DISCID=8a0d1c0c
DTITLE=The Hoax - Big City Blues
DYEAR=2013
DGENRE=Blues
TTITLE0=Hipslicker
TTITLE1=Big City Blues
TTITLE2=Let It Shine
TTITLE3=Stick Around
TTITLE4=Can't Do Right For Doing Wrong
TTITLE5=Two Steps Back
TTITLE6=Keep On Messin'
TTITLE7=Talk Is Cheap
TTITLE8=Roll On Up
TTITLE9=Give Me A Drink
TTITLE10=Nuits Insolites
TTITLE11=Pledge Giver Blues
EXTD=
EXTT0=
EXTT1=
EXTT2=
EXTT3=
EXTT4=
EXTT5=
EXTT6=
EXTT7=
EXTT8=
EXTT9=
EXTT10=
EXTT11=
PLAYORDER=
